<svg id="visual" viewBox="0 0 900 600" width="900" height="600" xmlns="http://www.w3.org/2000/svg" xmlns:xlink="http://www.w3.org/1999/xlink" version="1.1"><rect x="0" y="0" width="900" height="600" fill="#1051b3"></rect><defs><linearGradient id="grad1_0" x1="33.3%" y1="0%" x2="100%" y2="100%"><stop offset="20%" stop-color="#5e5e5f" stop-opacity="1"></stop><stop offset="80%" stop-color="#5e5e5f" stop-opacity="1"></stop></linearGradient></defs><defs><linearGradient id="grad1_1" x1="33.3%" y1="0%" x2="100%" y2="100%"><stop offset="20%" stop-color="#5e5e5f" stop-opacity="1"></stop><stop offset="80%" stop-color="#5b5b6d" stop-opacity="1"></stop></linearGradient></defs><defs><linearGradient id="grad1_2" x1="33.3%" y1="0%" x2="100%" y2="100%"><stop offset="20%" stop-color="#56597b" stop-opacity="1"></stop><stop offset="80%" stop-color="#5b5b6d" stop-opacity="1"></stop></linearGradient></defs><defs><linearGradient id="grad1_3" x1="33.3%" y1="0%" x2="100%" y2="100%"><stop offset="20%" stop-color="#56597b" stop-opacity="1"></stop><stop offset="80%" stop-color="#4e5788" stop-opacity="1"></stop></linearGradient></defs><defs><linearGradient id="grad1_4" x1="33.3%" y1="0%" x2="100%" y2="100%"><stop offset="20%" stop-color="#445596" stop-opacity="1"></stop><stop offset="80%" stop-color="#4e5788" stop-opacity="1"></stop></linearGradient></defs><defs><linearGradient id="grad1_5" x1="33.3%" y1="0%" x2="100%" y2="100%"><stop offset="20%" stop-color="#445596" stop-opacity="1"></stop><stop offset="80%" stop-color="#3353a5" stop-opacity="1"></stop></linearGradient></defs><defs><linearGradient id="grad1_6" x1="33.3%" y1="0%" x2="100%" y2="100%"><stop offset="20%" stop-color="#1051b3" stop-opacity="1"></stop><stop offset="80%" stop-color="#3353a5" stop-opacity="1"></stop></linearGradient></defs><defs><linearGradient id="grad2_0" x1="0%" y1="0%" x2="66.7%" y2="100%"><stop offset="20%" stop-color="#5e5e5f" stop-opacity="1"></stop><stop offset="80%" stop-color="#5e5e5f" stop-opacity="1"></stop></linearGradient></defs><defs><linearGradient id="grad2_1" x1="0%" y1="0%" x2="66.7%" y2="100%"><stop offset="20%" stop-color="#5b5b6d" stop-opacity="1"></stop><stop offset="80%" stop-color="#5e5e5f" stop-opacity="1"></stop></linearGradient></defs><defs><linearGradient id="grad2_2" x1="0%" y1="0%" x2="66.7%" y2="100%"><stop offset="20%" stop-color="#5b5b6d" stop-opacity="1"></stop><stop offset="80%" stop-color="#56597b" stop-opacity="1"></stop></linearGradient></defs><defs><linearGradient id="grad2_3" x1="0%" y1="0%" x2="66.7%" y2="100%"><stop offset="20%" stop-color="#4e5788" stop-opacity="1"></stop><stop offset="80%" stop-color="#56597b" stop-opacity="1"></stop></linearGradient></defs><defs><linearGradient id="grad2_4" x1="0%" y1="0%" x2="66.7%" y2="100%"><stop offset="20%" stop-color="#4e5788" stop-opacity="1"></stop><stop offset="80%" stop-color="#445596" stop-opacity="1"></stop></linearGradient></defs><defs><linearGradient id="grad2_5" x1="0%" y1="0%" x2="66.7%" y2="100%"><stop offset="20%" stop-color="#3353a5" stop-opacity="1"></stop><stop offset="80%" stop-color="#445596" stop-opacity="1"></stop></linearGradient></defs><defs><linearGradient id="grad2_6" x1="0%" y1="0%" x2="66.7%" y2="100%"><stop offset="20%" stop-color="#3353a5" stop-opacity="1"></stop><stop offset="80%" stop-color="#1051b3" stop-opacity="1"></stop></linearGradient></defs><g transform="translate(900, 0)"><path d="M0 540.8C-99.8 529.7 -199.6 518.5 -270.4 468.4C-341.3 418.2 -383.2 329.1 -423.5 244.5C-463.7 159.9 -502.3 80 -540.8 0L0 0Z" fill="#2752ac"></path><path d="M0 463.6C-85.5 454 -171 444.5 -231.8 401.5C-292.5 358.5 -328.5 282.1 -363 209.6C-397.5 137.1 -430.5 68.5 -463.6 0L0 0Z" fill="#3d549e"></path><path d="M0 386.3C-71.3 378.3 -142.5 370.4 -193.2 334.6C-243.8 298.7 -273.7 235 -302.5 174.6C-331.2 114.2 -358.8 57.1 -386.3 0L0 0Z" fill="#49568f"></path><path d="M0 309C-57 302.7 -114 296.3 -154.5 267.6C-195 239 -219 188 -242 139.7C-265 91.4 -287 45.7 -309 0L0 0Z" fill="#525882"></path><path d="M0 231.8C-42.8 227 -85.5 222.2 -115.9 200.7C-146.3 179.2 -164.2 141 -181.5 104.8C-198.7 68.5 -215.3 34.3 -231.8 0L0 0Z" fill="#585a74"></path><path d="M0 154.5C-28.5 151.3 -57 148.2 -77.3 133.8C-97.5 119.5 -109.5 94 -121 69.9C-132.5 45.7 -143.5 22.8 -154.5 0L0 0Z" fill="#5d5d66"></path><path d="M0 77.3C-14.3 75.7 -28.5 74.1 -38.6 66.9C-48.8 59.7 -54.7 47 -60.5 34.9C-66.2 22.8 -71.8 11.4 -77.3 0L0 0Z" fill="#5e5e5f"></path></g><g transform="translate(0, 600)"><path d="M0 -540.8C103.1 -531.6 206.2 -522.4 270.4 -468.4C334.6 -414.4 359.8 -315.5 398.4 -230C436.9 -144.5 488.9 -72.2 540.8 0L0 0Z" fill="#2752ac"></path><path d="M0 -463.6C88.4 -455.7 176.8 -447.8 231.8 -401.5C286.8 -355.2 308.4 -270.5 341.5 -197.1C374.5 -123.8 419 -61.9 463.6 0L0 0Z" fill="#3d549e"></path><path d="M0 -386.3C73.7 -379.7 147.3 -373.1 193.2 -334.6C239 -296 257 -225.4 284.6 -164.3C312.1 -103.2 349.2 -51.6 386.3 0L0 0Z" fill="#49568f"></path><path d="M0 -309C58.9 -303.8 117.9 -298.5 154.5 -267.6C191.2 -236.8 205.6 -180.3 227.6 -131.4C249.7 -82.6 279.4 -41.3 309 0L0 0Z" fill="#525882"></path><path d="M0 -231.8C44.2 -227.8 88.4 -223.9 115.9 -200.7C143.4 -177.6 154.2 -135.2 170.7 -98.6C187.3 -61.9 209.5 -31 231.8 0L0 0Z" fill="#585a74"></path><path d="M0 -154.5C29.5 -151.9 58.9 -149.3 77.3 -133.8C95.6 -118.4 102.8 -90.2 113.8 -65.7C124.8 -41.3 139.7 -20.6 154.5 0L0 0Z" fill="#5d5d66"></path><path d="M0 -77.3C14.7 -75.9 29.5 -74.6 38.6 -66.9C47.8 -59.2 51.4 -45.1 56.9 -32.9C62.4 -20.6 69.8 -10.3 77.3 0L0 0Z" fill="#5e5e5f"></path></g></svg>