<svg id="visual" viewBox="0 0 960 540" width="960" height="540" xmlns="http://www.w3.org/2000/svg" xmlns:xlink="http://www.w3.org/1999/xlink" version="1.1"><g transform="translate(479.9627453770104 283.8652133909448)"><path d="M132.7 -191.9C159.7 -163.1 160.7 -107.8 172.6 -59C184.5 -10.1 207.3 32.3 202 70.9C196.7 109.5 163.3 144.1 125 162.3C86.6 180.5 43.3 182.3 -2.6 185.9C-48.6 189.5 -97.2 195.1 -132.7 176C-168.2 156.8 -190.6 113 -199 69C-207.3 24.9 -201.6 -19.4 -182.7 -53.7C-163.7 -87.9 -131.4 -112.2 -98.8 -139.1C-66.1 -166 -33.1 -195.5 9.9 -209.2C52.9 -222.8 105.8 -220.6 132.7 -191.9" fill="#d5a9aa"></path></g></svg>